<svg width="1280" height="520" viewBox="0 0 1280 520" xmlns="http://www.w3.org/2000/svg" role="img" aria-label="GAGAN CHAUHAN — Founder of HACKKNOW.COM — building intelligent systems beyond imagination">
  <defs>
    <!-- DOT GRID PATTERN -->
    <pattern id="dotgrid" x="0" y="0" width="22" height="22" patternUnits="userSpaceOnUse">
      <circle cx="2" cy="2" r="1" fill="#FFD60A" opacity="0.18"/>
    </pattern>

    <!-- NEBULA GRADIENTS -->
    <radialGradient id="nebulaMagenta" cx="50%" cy="50%" r="50%">
      <stop offset="0%" stop-color="#FF006E" stop-opacity="0.55"/>
      <stop offset="60%" stop-color="#FF006E" stop-opacity="0.15"/>
      <stop offset="100%" stop-color="#FF006E" stop-opacity="0"/>
    </radialGradient>
    <radialGradient id="nebulaCyan" cx="50%" cy="50%" r="50%">
      <stop offset="0%" stop-color="#00F0FF" stop-opacity="0.45"/>
      <stop offset="60%" stop-color="#00F0FF" stop-opacity="0.12"/>
      <stop offset="100%" stop-color="#00F0FF" stop-opacity="0"/>
    </radialGradient>
    <radialGradient id="nebulaViolet" cx="50%" cy="50%" r="50%">
      <stop offset="0%" stop-color="#B026FF" stop-opacity="0.50"/>
      <stop offset="60%" stop-color="#B026FF" stop-opacity="0.12"/>
      <stop offset="100%" stop-color="#B026FF" stop-opacity="0"/>
    </radialGradient>

    <!-- DEEP SPACE BACKGROUND -->
    <linearGradient id="space" x1="0" y1="0" x2="0" y2="1">
      <stop offset="0%" stop-color="#050510"/>
      <stop offset="50%" stop-color="#0a0420"/>
      <stop offset="100%" stop-color="#050510"/>
    </linearGradient>

    <!-- TEXT GLOW FILTER -->
    <filter id="textGlow" x="-20%" y="-20%" width="140%" height="140%">
      <feGaussianBlur stdDeviation="3" result="blur"/>
      <feMerge>
        <feMergeNode in="blur"/>
        <feMergeNode in="SourceGraphic"/>
      </feMerge>
    </filter>

    <!-- SCAN LINES PATTERN -->
    <pattern id="scanlines" x="0" y="0" width="100" height="3" patternUnits="userSpaceOnUse">
      <rect width="100" height="1" fill="#FFFBEA" opacity="0.025"/>
    </pattern>
  </defs>

  <!-- ═══ DEEP SPACE BACKGROUND ═══ -->
  <rect width="1280" height="520" fill="url(#space)"/>

  <!-- ═══ NEBULAE ═══ -->
  <ellipse cx="180" cy="120" rx="320" ry="220" fill="url(#nebulaMagenta)"/>
  <ellipse cx="1080" cy="380" rx="340" ry="240" fill="url(#nebulaCyan)"/>
  <ellipse cx="640" cy="280" rx="420" ry="280" fill="url(#nebulaViolet)" opacity="0.6"/>

  <!-- ═══ DOT GRID OVERLAY ═══ -->
  <rect width="1280" height="520" fill="url(#dotgrid)" opacity="0.5"/>

  <!-- ═══ STAR FIELD ═══ -->
  <g fill="#FFFBEA">
    <circle cx="80"  cy="60"  r="1.2"/>
    <circle cx="220" cy="40"  r="0.8"/>
    <circle cx="380" cy="90"  r="1.4"/>
    <circle cx="520" cy="30"  r="0.7"/>
    <circle cx="710" cy="70"  r="1.6"/>
    <circle cx="880" cy="50"  r="0.9"/>
    <circle cx="1050" cy="100" r="1.3"/>
    <circle cx="1210" cy="40"  r="0.8"/>
    <circle cx="60"  cy="200" r="0.9"/>
    <circle cx="50"  cy="380" r="1.5"/>
    <circle cx="120" cy="460" r="0.7"/>
    <circle cx="1240" cy="200" r="1.2"/>
    <circle cx="1190" cy="320" r="0.9"/>
    <circle cx="1150" cy="450" r="1.4"/>
    <circle cx="1100" cy="490" r="0.8"/>
    <circle cx="340" cy="490" r="0.9"/>
    <circle cx="540" cy="500" r="1.2"/>
    <circle cx="780" cy="495" r="0.7"/>
    <circle cx="970" cy="500" r="1.1"/>
  </g>
  <g fill="#FFD60A">
    <circle cx="190" cy="80"  r="1.6"/>
    <circle cx="450" cy="60"  r="1.2"/>
    <circle cx="870" cy="80"  r="1.4"/>
    <circle cx="170" cy="490" r="1.2"/>
    <circle cx="1180" cy="80" r="1.5"/>
    <circle cx="40"  cy="280" r="1.1"/>
  </g>
  <g fill="#FF006E">
    <circle cx="300" cy="50"  r="1.4"/>
    <circle cx="980" cy="60"  r="1.2"/>
    <circle cx="600" cy="510" r="1.4"/>
    <circle cx="1230" cy="500" r="1.2"/>
  </g>
  <g fill="#00F0FF">
    <circle cx="610" cy="50"  r="1.4"/>
    <circle cx="1080" cy="35" r="1.6"/>
    <circle cx="80"  cy="500" r="1.3"/>
  </g>

  <!-- ═══ SCAN LINES OVERLAY ═══ -->
  <rect width="1280" height="520" fill="url(#scanlines)"/>

  <!-- ═══ HARD SHADOW OFFSET ═══ -->
  <rect x="74" y="80" width="1148" height="386" fill="#0A0A0A"/>

  <!-- ═══ MAIN YELLOW CARD ═══ -->
  <rect x="60" y="66" width="1148" height="386" fill="#FFD60A" stroke="#0A0A0A" stroke-width="6"/>

  <!-- ═══ CARD CORNER BRACKETS ═══ -->
  <g fill="#0A0A0A">
    <!-- TL -->
    <rect x="60" y="66" width="22" height="4"/>
    <rect x="60" y="66" width="4" height="22"/>
    <!-- TR -->
    <rect x="1186" y="66" width="22" height="4"/>
    <rect x="1204" y="66" width="4" height="22"/>
    <!-- BL -->
    <rect x="60" y="448" width="22" height="4"/>
    <rect x="60" y="430" width="4" height="22"/>
    <!-- BR -->
    <rect x="1186" y="448" width="22" height="4"/>
    <rect x="1204" y="430" width="4" height="22"/>
  </g>

  <!-- ═══ INNER GRID PATTERN ═══ -->
  <g opacity="0.06">
    <line x1="60" y1="146" x2="1208" y2="146" stroke="#0A0A0A" stroke-width="1"/>
    <line x1="60" y1="226" x2="1208" y2="226" stroke="#0A0A0A" stroke-width="1"/>
    <line x1="60" y1="306" x2="1208" y2="306" stroke="#0A0A0A" stroke-width="1"/>
    <line x1="60" y1="386" x2="1208" y2="386" stroke="#0A0A0A" stroke-width="1"/>
  </g>

  <!-- ═══ TOP SLUG ═══ -->
  <g transform="translate(96,98)">
    <rect width="10" height="10" fill="#FF006E"/>
    <text x="20" y="9" font-family="'JetBrains Mono','Courier New',monospace" font-weight="700" font-size="11" fill="#0A0A0A" letter-spacing="3">▸ DOSSIER · v2026.05.16 · DELHI/IND · SYS://ONLINE</text>
  </g>

  <!-- ═══ MAGENTA ACCENT BLOCK (top-right) ═══ -->
  <g>
    <rect x="1024" y="86" width="166" height="56" fill="#FF006E" stroke="#0A0A0A" stroke-width="4"/>
    <rect x="1028" y="90" width="166" height="56" fill="#FF006E" opacity="0"/>
    <text x="1107" y="118" font-family="'JetBrains Mono','Courier New',monospace" font-weight="800" font-size="13" fill="#FFFBEA" text-anchor="middle" letter-spacing="2">★ FOUNDER</text>
    <text x="1107" y="135" font-family="'JetBrains Mono','Courier New',monospace" font-weight="700" font-size="10" fill="#FFFBEA" text-anchor="middle" letter-spacing="2">HACKKNOW//OS</text>
  </g>

  <!-- ═══ BIG NAME ═══ -->
  <text x="96" y="232" font-family="'Bebas Neue','Space Grotesk','Helvetica',sans-serif" font-weight="900" font-size="118" fill="#0A0A0A" letter-spacing="-1">GAGAN CHAUHAN</text>

  <!-- ═══ TAGLINE ═══ -->
  <text x="98" y="278" font-family="'JetBrains Mono','Courier New',monospace" font-weight="700" font-size="20" fill="#0A0A0A" letter-spacing="2">▸ FOUNDER · HACKKNOW.COM · MADE IN INDIA 🇮🇳</text>

  <!-- ═══ SUBTITLE STACK ═══ -->
  <text x="98" y="316" font-family="'Inter','Helvetica',sans-serif" font-weight="500" font-size="17" fill="#0A0A0A" opacity="0.85">React 19 ▪ Cloudflare Workers ▪ WPGraphQL ▪ Multi-LLM Orchestration (Groq+Gemini+Claude+Llama) ▪ BCA</text>

  <!-- ═══ CHIPS ROW ═══ -->
  <g transform="translate(96,340)">
    <!-- Chip: HACKKNOW.COM -->
    <rect x="0" y="0" width="218" height="44" fill="#0A0A0A"/>
    <text x="109" y="29" font-family="'JetBrains Mono','Courier New',monospace" font-weight="800" font-size="14" fill="#FFD60A" text-anchor="middle" letter-spacing="1">▸ HACKKNOW.COM</text>

    <!-- Chip: YEXCEL -->
    <rect x="232" y="0" width="178" height="44" fill="#FFFBEA" stroke="#0A0A0A" stroke-width="3"/>
    <text x="321" y="29" font-family="'JetBrains Mono','Courier New',monospace" font-weight="800" font-size="14" fill="#0A0A0A" text-anchor="middle" letter-spacing="1">▸ YEXCEL</text>

    <!-- Chip: HACKKNOW//OS LIVE (the new showcase!) -->
    <rect x="428" y="0" width="262" height="44" fill="#00F0FF" stroke="#0A0A0A" stroke-width="3"/>
    <text x="559" y="22" font-family="'JetBrains Mono','Courier New',monospace" font-weight="800" font-size="12" fill="#0A0A0A" text-anchor="middle" letter-spacing="1">▸ HACKKNOW//OS · LIVE</text>
    <text x="559" y="36" font-family="'JetBrains Mono','Courier New',monospace" font-weight="700" font-size="9" fill="#0A0A0A" text-anchor="middle" letter-spacing="1.5">cosmic brutalism showcase</text>

    <!-- Chip: YAHAVI AI -->
    <rect x="708" y="0" width="174" height="44" fill="#FF006E" stroke="#0A0A0A" stroke-width="3"/>
    <text x="795" y="29" font-family="'JetBrains Mono','Courier New',monospace" font-weight="800" font-size="14" fill="#FFFBEA" text-anchor="middle" letter-spacing="1">▸ YAHAVI AI</text>

    <!-- Chip: AVAILABLE -->
    <rect x="900" y="0" width="212" height="44" fill="#22C55E" stroke="#0A0A0A" stroke-width="3"/>
    <circle cx="922" cy="22" r="5" fill="#0A0A0A"/>
    <text x="1014" y="29" font-family="'JetBrains Mono','Courier New',monospace" font-weight="800" font-size="14" fill="#0A0A0A" text-anchor="middle" letter-spacing="1">● AVAILABLE</text>
  </g>

  <!-- ═══ DECORATIVE COSMIC ACCENTS INSIDE CARD ═══ -->
  <g opacity="0.18">
    <circle cx="1100" cy="220" r="40" fill="none" stroke="#0A0A0A" stroke-width="2"/>
    <circle cx="1100" cy="220" r="60" fill="none" stroke="#FF006E" stroke-width="1.5"/>
    <circle cx="1100" cy="220" r="80" fill="none" stroke="#0A0A0A" stroke-width="1"/>
  </g>
  <g opacity="0.18">
    <path d="M1080 240 L1120 200 M1080 200 L1120 240" stroke="#0A0A0A" stroke-width="2"/>
  </g>

  <!-- ═══ BOTTOM TERMINAL STRIPE INSIDE CARD ═══ -->
  <rect x="60" y="406" width="1148" height="46" fill="#0A0A0A"/>
  <text x="80" y="436" font-family="'JetBrains Mono','Courier New',monospace" font-weight="700" font-size="13" fill="#FFD60A" letter-spacing="1">$ gagan@hackknow:~$ ship --intelligence=max --india=true --in-public=always</text>
  <text x="1190" y="436" font-family="'JetBrains Mono','Courier New',monospace" font-weight="700" font-size="11" fill="#FF006E" text-anchor="end" letter-spacing="2">v2026.05.16</text>

  <!-- ═══ FLOATING COSMIC DOTS ABOVE/BELOW CARD ═══ -->
  <g>
    <circle cx="20" cy="40" r="3" fill="#FFD60A"/>
    <circle cx="40" cy="38" r="2" fill="#FF006E"/>
    <circle cx="1260" cy="40" r="3" fill="#00F0FF"/>
    <circle cx="1244" cy="42" r="2" fill="#FFD60A"/>
    <circle cx="22" cy="480" r="2" fill="#FF006E"/>
    <circle cx="1262" cy="490" r="3" fill="#FFD60A"/>
  </g>

  <!-- ═══ SIDE VERTICAL TEXT ═══ -->
  <text x="36" y="260" font-family="'JetBrains Mono','Courier New',monospace" font-weight="700" font-size="10" fill="#FFFBEA" opacity="0.55" letter-spacing="3" transform="rotate(-90 36 260)">▸ COSMIC BRUTALISM · EST. 2024</text>
  <text x="1254" y="260" font-family="'JetBrains Mono','Courier New',monospace" font-weight="700" font-size="10" fill="#FFFBEA" opacity="0.55" letter-spacing="3" transform="rotate(90 1254 260)">▸ SIGNAL ▪ ▪ ▪ LOCKED</text>
</svg>
